<svg xmlns="http://www.w3.org/2000/svg" viewBox="0 0 48 48" width="24" height="24">
  <path fill="#EA4335" d="M24 9.5c3.54 0 6.7 1.22 9.19 3.6l6.85-6.85C35.54 2.77 30.14 0 24 0 14.7 0 6.7 5.26 2.73 13.01l7.98 6.2C12.47 12.18 17.73 9.5 24 9.5z"/>
  <path fill="#34A853" d="M46.1 24.55c0-1.61-.15-3.16-.42-4.66H24v9.1h12.35c-.53 2.8-2.1 5.18-4.48 6.78l7.01 5.45C42.68 37.37 46.1 31.47 46.1 24.55z"/>
  <path fill="#4A90E2" d="M24 47.9c6.14 0 11.29-2.03 15.05-5.54l-7.01-5.45c-1.95 1.31-4.45 2.1-8.04 2.1-6.27 0-11.53-4.68-13.42-10.94l-8.01 6.18C6.7 42.74 14.7 47.9 24 47.9z"/>
  <path fill="#FBBC05" d="M10.58 28.07C10.06 26.46 9.77 24.76 9.77 23s.29-3.46.81-5.07l-8.01-6.18C.92 14.7 0 18.75 0 23c0 4.25.92 8.3 2.57 11.25l8.01-6.18z"/>
</svg>
